HIERARCHY
ROOT Hips
{
	OFFSET -3.958830 18.904000 13.208200
	CHANNELS 6 Xposition Yposition Zposition Zrotation Yrotation Xrotation 
	JOINT LHipJoint
	{
		OFFSET 0.000000 0.000000 0.000000
		CHANNELS 3 Zrotation Yrotation Xrotation
		JOINT LeftUpLeg
		{
			OFFSET 1.800000 -1.400000 0.085000
			CHANNELS 3 Zrotation Yrotation Xrotation
			JOINT LeftLeg
			{
				OFFSET 2.215000 -6.000000 0.000000
				CHANNELS 3 Zrotation Yrotation Xrotation
				JOINT LeftFoot
				{
					OFFSET 2.500000 -6.900000 0.000000
					CHANNELS 3 Zrotation Yrotation Xrotation
					JOINT LeftToeBase
					{
						OFFSET 0.200000 -0.500000 1.950000
						CHANNELS 3 Zrotation Yrotation Xrotation
						End Site
						{
							OFFSET 0.000000 0.000000 0.000000
						}
					}
				}
			}
		}
	}
	JOINT RHipJoint
	{
		OFFSET 0.000000 0.000000 0.000000
		CHANNELS 3 Zrotation Yrotation Xrotation
		JOINT RightUpLeg
		{
			OFFSET -1.800000 -1.400000 0.085000
			CHANNELS 3 Zrotation Yrotation Xrotation
			JOINT RightLeg
			{
				OFFSET -2.215000 -6.000000 0.000000
				CHANNELS 3 Zrotation Yrotation Xrotation
				JOINT RightFoot
				{
					OFFSET -2.500000 -6.900000 0.000000
					CHANNELS 3 Zrotation Yrotation Xrotation
					JOINT RightToeBase
					{
						OFFSET -0.200000 -0.500000 1.950000
						CHANNELS 3 Zrotation Yrotation Xrotation
						End Site
						{
							OFFSET 0.000000 0.000000 0.000000
						}
					}
				}
			}
		}
	}
	JOINT LowerBack
	{
		OFFSET 0.000000 0.000000 0.000000
		CHANNELS 3 Zrotation Yrotation Xrotation
		JOINT Spine
		{
			OFFSET -0.087000 1.940000 -0.288900
			CHANNELS 3 Zrotation Yrotation Xrotation
			JOINT Spine1
			{
				OFFSET 0.000000 1.950000 0.060000
				CHANNELS 3 Zrotation Yrotation Xrotation
				JOINT Neck
				{
					OFFSET 0.000000 0.000000 0.000000
					CHANNELS 3 Zrotation Yrotation Xrotation
					JOINT Neck1
					{
						OFFSET 0.000000 1.600000 0.340000
						CHANNELS 3 Zrotation Yrotation Xrotation
						JOINT Head
						{
							OFFSET 0.000000 1.667000 -0.240000
							CHANNELS 3 Zrotation Yrotation Xrotation
							End Site
							{
								OFFSET 0.000000 0.000000 0.000000
							}
						}
					}
				}
				JOINT LeftShoulder
				{
					OFFSET 0.000000 0.000000 0.000000
					CHANNELS 3 Zrotation Yrotation Xrotation
					JOINT LeftArm
					{
						OFFSET 2.700000 1.550000 -0.730000
						CHANNELS 3 Zrotation Yrotation Xrotation
						JOINT LeftForeArm
						{
							OFFSET 5.450000 0.000000 0.000000
							CHANNELS 3 Zrotation Yrotation Xrotation
							JOINT LeftHand
							{
								OFFSET 3.450000 0.000000 0.000000
								CHANNELS 3 Zrotation Yrotation Xrotation
								JOINT LeftHandIndex1
								{
									OFFSET 0.750000 0.000000 0.000000
									CHANNELS 3 Zrotation Yrotation Xrotation
									End Site
									{
										OFFSET 0.000000 0.000000 0.000000
									}
								}
							}
						}
					}
				}
				JOINT RightShoulder
				{
					OFFSET 0.000000 0.000000 0.000000
					CHANNELS 3 Zrotation Yrotation Xrotation
					JOINT RightArm
					{
						OFFSET -2.700000 1.550000 -0.730000
						CHANNELS 3 Zrotation Yrotation Xrotation
						JOINT RightForeArm
						{
							OFFSET -5.450000 0.000000 0.000000
							CHANNELS 3 Zrotation Yrotation Xrotation
							JOINT RightHand
							{
								OFFSET -3.450000 0.000000 0.000000
								CHANNELS 3 Zrotation Yrotation Xrotation
								JOINT RightHandIndex1
								{
									OFFSET -0.750000 0.000000 0.000000
									CHANNELS 3 Zrotation Yrotation Xrotation
									End Site
									{
										OFFSET 0.000000 0.000000 0.000000
									}
								}
							}
						}
					}
				}
			}
		}
	}
}
MOTION
Frames: 14
Frame Time: 0.016667
-2.035100 17.863910 -0.948110 -39.065188 -84.694899 34.641569 -14.903439 13.337894 2.772503 5.319484 -0.293812 -6.861798 -7.444915 5.874889 10.222017 -0.356800 4.305793 3.308029 0.216160 0.254790 -0.048320 18.505111 -11.196214 2.715996 -1.203155 0.575624 -10.016103 5.882412 -5.198165 16.824543 -0.014474 -4.145779 3.014549 0.329420 0.729660 0.111930 -3.886888 -0.887766 -6.737866 10.182515 -1.233874 5.223951 -4.203052 -1.387555 17.098993 1.317471 -0.518534 -9.995888 -1.950879 2.648071 30.756107 -2.135820 2.000650 2.775470 -1.268711 -16.964309 4.295629 -3.807650 -29.354982 -1.445041 101.975398 -25.359739 -33.449106 -4.100765 3.075218 -0.165440 0.526340 -0.405960 0.298900 -0.912856 17.145565 5.755548 10.279281 26.871145 -2.593733 -103.305611 25.532098 -38.896944 1.961529 -2.114397 -0.262500 0.295200 0.002240 0.138480 
-2.046120 17.875390 -0.943170 -45.719974 -85.221882 40.910566 -14.833194 13.378685 2.783911 5.317284 -0.179869 -6.119924 -7.370213 5.818256 9.676608 -0.346340 4.334067 3.300234 0.206320 0.235570 -0.050470 18.586041 -11.117346 2.726991 -1.377619 0.223600 -8.505932 5.838602 -5.024106 14.877633 -0.035773 -4.095878 3.045203 0.310900 0.719880 0.108510 -3.858653 -0.812760 -6.776447 10.847354 -1.153911 5.520746 -4.811252 -1.133163 17.436284 1.402451 -0.913114 -10.155663 -2.721369 2.668735 31.214864 -1.956860 1.673910 2.203240 -1.843632 -17.325633 4.429355 -3.154646 -28.577018 -1.957538 102.835040 -24.712230 -33.257461 -4.092070 3.053752 -0.133700 0.504380 -0.390550 0.290190 -0.562964 17.799280 6.043329 9.105072 26.054870 -3.314303 -103.972892 25.403478 -39.005147 1.967840 -2.077794 -0.265850 0.308550 0.016680 0.132670 
-2.056670 17.882670 -0.937830 -55.015024 -85.658246 50.142692 -14.767901 13.476765 2.785803 5.218551 -0.162514 -6.019030 -7.105866 5.778384 9.671142 -0.360747 4.360236 3.297769 0.192790 0.211020 -0.057580 18.662684 -10.983189 2.737620 -1.407466 0.011806 -7.521623 5.800889 -4.855534 13.349652 -0.036503 -4.052396 3.074769 0.303170 0.733230 0.098520 -3.819401 -0.684976 -6.796296 11.438840 -1.010011 5.531509 -5.247252 -0.883461 17.531906 1.419183 -1.211321 -10.182786 -3.258839 2.737450 31.245781 -1.741000 1.393700 2.047920 -2.110596 -17.234871 4.444095 -3.252011 -28.329324 -1.990490 103.523649 -24.373081 -33.341751 -4.097110 3.031799 -0.117030 0.502030 -0.399640 0.284930 -0.388255 17.948630 6.144418 8.670332 25.688388 -3.499597 -104.540482 25.504669 -39.347564 1.960415 -2.053612 -0.285070 0.330590 0.033440 0.126270 
-2.067580 17.885400 -0.934580 -64.119038 -86.057786 59.476644 -14.761823 13.598783 2.784229 4.925991 -0.223805 -6.481257 -6.709275 5.728261 10.091596 -0.400187 4.356014 3.298540 0.198170 0.210910 -0.060310 18.677908 -10.840969 2.739108 -1.381893 -0.067432 -7.087360 5.641045 -4.662511 12.282081 -0.025357 -3.995770 3.103070 0.318150 0.747620 0.088330 -3.797950 -0.573817 -6.789225 11.642584 -0.804013 5.305278 -5.339673 -0.660453 17.425615 1.304278 -1.468267 -10.072677 -3.660047 2.844425 30.832106 -1.388220 1.067070 1.744480 -1.970940 -16.624488 4.352786 -4.375120 -28.601499 -1.530018 104.270630 -24.235374 -33.834503 -4.099733 3.024619 -0.108570 0.505180 -0.415070 0.285520 -0.343181 17.601507 6.038019 9.059019 25.861377 -3.158356 -105.333000 25.736391 -40.090709 1.937086 -2.046990 -0.304040 0.352320 0.043290 0.119970 
-2.078780 17.886000 -0.931120 -71.352691 -86.312814 66.944376 -14.792444 13.696716 2.782892 4.667441 -0.280363 -6.892090 -6.371116 5.688875 10.487459 -0.423192 4.346358 3.306121 0.205670 0.221600 -0.059440 18.653410 -10.734684 2.734622 -1.377016 -0.097661 -6.912322 5.556127 -4.535674 11.704780 -0.015519 -3.956565 3.118153 0.336830 0.762480 0.076080 -3.808898 -0.477713 -6.774401 11.703887 -0.673466 5.049760 -5.333790 -0.526048 17.307700 1.209466 -1.668850 -9.950568 -3.924815 2.935337 30.311639 -1.126900 0.833520 1.571050 -1.751020 -15.993789 4.295401 -5.655716 -28.767680 -1.050324 104.940829 -24.291162 -34.499472 -4.098511 3.023093 -0.113750 0.508730 -0.427470 0.290800 -0.391805 17.217681 5.858734 9.447071 26.267284 -2.749876 -105.735885 25.937586 -40.603145 1.926829 -2.047096 -0.317500 0.373660 0.042690 0.122060 
-2.090550 17.883560 -0.927090 -79.163757 -86.549415 74.991528 -14.857190 13.788101 2.797986 4.458765 -0.316435 -7.149367 -6.172096 5.652999 10.638886 -0.442843 4.340924 3.308013 0.221820 0.237360 -0.044180 18.591515 -10.649080 2.712050 -1.373503 -0.052775 -7.052581 5.423639 -4.465170 11.787077 -0.004073 -3.917651 3.127034 0.356890 0.762040 0.067550 -3.853457 -0.366192 -6.758507 11.733663 -0.529810 4.785503 -5.383293 -0.378407 17.159355 1.194113 -1.782758 -9.819147 -4.038525 2.972625 29.902592 -1.040000 0.721790 1.306830 -1.587831 -15.369297 4.243670 -6.820633 -28.884630 -0.542181 105.664601 -24.534216 -35.331879 -4.092513 3.022489 -0.114740 0.507870 -0.432820 0.291370 -0.534655 16.794352 5.645930 10.025767 26.869582 -2.259021 -106.016791 25.956272 -40.878678 1.918339 -2.053841 -0.325580 0.384310 0.036050 0.116990 
-2.101970 17.875330 -0.921550 -81.996664 -86.690226 78.219589 -14.892906 13.817504 2.806838 4.202914 -0.373794 -7.533315 -6.055350 5.610528 10.777344 -0.470661 4.321796 3.320212 0.235450 0.258660 -0.036730 18.556559 -10.625069 2.689757 -1.379207 0.060201 -7.620030 5.342998 -4.428788 12.159270 0.012948 -3.886698 3.132250 0.384500 0.774500 0.061370 -3.870820 -0.290723 -6.730891 11.570089 -0.458573 4.397899 -5.318607 -0.327978 16.869520 1.208636 -1.770863 -9.613304 -3.893447 2.903142 29.251802 -1.245550 0.702280 1.170050 -1.419315 -14.621500 4.128172 -8.011093 -29.189203 0.134553 106.443360 -24.937271 -36.311884 -4.096525 3.018299 -0.124100 0.519930 -0.441590 0.300290 -0.717037 16.134646 5.336856 10.752611 27.633672 -1.569112 -106.247282 25.991153 -41.129435 1.904446 -2.068394 -0.338420 0.400970 0.027680 0.117670 
-2.113190 17.862920 -0.913870 -81.049791 -86.670577 77.634229 -14.879451 13.809635 2.804394 3.988183 -0.430535 -7.834976 -5.891317 5.551558 10.898592 -0.483555 4.282424 3.332178 0.253850 0.294790 -0.020100 18.569882 -10.639156 2.673155 -1.353183 0.204654 -8.408421 5.426237 -4.454436 12.808399 0.029245 -3.870143 3.122334 0.417780 0.774250 0.058010 -3.875383 -0.214145 -6.699005 11.613984 -0.502139 4.015508 -5.429176 -0.407761 16.588280 1.259404 -1.738784 -9.369432 -3.699287 2.836232 28.506035 -1.632030 0.842980 1.083360 -1.397941 -13.913882 3.973822 -8.933755 -29.553150 0.747097 107.002049 -25.408546 -37.125268 -4.102290 3.024504 -0.151230 0.530920 -0.443030 0.305400 -0.827218 15.431947 5.004621 11.632129 28.485488 -0.750970 -106.661580 25.938186 -41.463336 1.903810 -2.095756 -0.337460 0.404800 0.009680 0.123330 
-2.121200 17.850190 -0.905870 -78.833204 -86.597614 75.568685 -14.852551 13.792970 2.806420 3.912165 -0.448698 -7.895565 -5.851358 5.536745 10.954079 -0.493771 4.285233 3.339004 0.253590 0.296630 -0.022460 18.591381 -10.685846 2.651920 -1.342291 0.393984 -9.297131 5.462903 -4.570964 14.025892 0.045012 -3.888082 3.110603 0.427170 0.792130 0.061290 -3.865104 -0.194347 -6.674564 11.627251 -0.610036 3.844132 -5.505116 -0.540091 16.423110 1.307789 -1.690905 -9.258096 -3.538117 2.872722 28.103098 -1.822400 0.943440 1.276470 -1.468621 -13.620678 3.939527 -9.504045 -29.641414 1.082563 107.502089 -25.708774 -37.784556 -4.120572 3.022887 -0.165460 0.549250 -0.455870 0.309260 -0.836608 15.092272 4.819238 12.180990 29.060734 -0.250875 -106.958392 25.792414 -41.570470 1.892210 -2.110710 -0.342930 0.411500 0.011840 0.124950 
-2.127430 17.839330 -0.897530 -78.375669 -86.543982 75.169455 -14.845850 13.790033 2.817445 3.956196 -0.425690 -7.762040 -5.930052 5.543818 10.816810 -0.501332 4.305738 3.339533 0.259830 0.306270 -0.027010 18.592114 -10.721878 2.621458 -1.341296 0.650106 -10.363166 5.499985 -4.759956 15.797978 0.056858 -3.935504 3.094497 0.439540 0.810720 0.063160 -3.871873 -0.178517 -6.654603 11.695071 -0.754617 3.797067 -5.604250 -0.694034 16.289910 1.341744 -1.722694 -9.140584 -3.519102 3.056165 27.749137 -1.837230 1.036440 1.319370 -1.631361 -13.425347 3.931962 -9.837744 -29.535910 1.241392 108.119208 -25.840381 -38.332904 -4.136374 3.020685 -0.175180 0.566450 -0.467840 0.317810 -0.728021 14.914029 4.602255 12.366733 29.689170 0.131442 -107.145793 25.633742 -41.536901 1.875763 -2.119117 -0.347430 0.422080 0.012610 0.127240 
-2.134840 17.827410 -0.888550 -73.310083 -86.365282 70.148255 -14.799217 13.729980 2.816071 4.088765 -0.390667 -7.516567 -6.125786 5.573186 10.616737 -0.508659 4.335617 3.335906 0.258860 0.313050 -0.038680 18.633195 -10.801354 2.600475 -1.397181 0.975266 -11.669269 5.673060 -5.068178 18.056464 0.062741 -4.055285 3.042506 0.454510 0.833160 0.065980 -3.849664 -0.208723 -6.631798 11.722529 -1.020749 3.723288 -5.636694 -0.982131 16.135890 1.361077 -1.743101 -8.982667 -3.474855 3.225037 27.301670 -1.942890 1.134990 1.516750 -1.763098 -13.240734 3.892163 -10.094290 -29.536630 1.367272 108.471646 -25.782814 -38.466861 -4.160774 3.026889 -0.193830 0.588750 -0.484950 0.322590 -0.603321 14.694243 4.333267 12.366107 30.360238 0.510218 -107.167490 25.511296 -41.390684 1.862795 -2.131962 -0.353500 0.429580 0.018490 0.132120 
-2.141890 17.813170 -0.883110 -67.516597 -86.294320 64.366121 -14.771890 13.646338 2.821179 4.183829 -0.314642 -7.065203 -6.462383 5.610597 10.180493 -0.503721 4.374901 3.330100 0.252780 0.312970 -0.052580 18.656728 -10.885102 2.584626 -1.549319 1.411768 -13.242813 5.765069 -5.445608 20.863216 0.057171 -4.240788 2.961642 0.462690 0.854600 0.075200 -3.823817 -0.274676 -6.617812 11.464183 -1.242212 3.669666 -5.560531 -1.228669 16.015435 1.381464 -1.719453 -8.868226 -3.381952 3.377756 27.012360 -2.098960 1.272910 1.825340 -1.723676 -13.133170 3.873637 -10.336013 -29.571307 1.428857 108.571223 -25.550020 -38.261093 -4.187004 3.040932 -0.213960 0.611460 -0.498560 0.326810 -0.640115 14.548206 4.101744 12.351092 31.017070 0.816262 -107.135761 25.219811 -41.063956 1.855166 -2.148177 -0.355380 0.430870 0.025970 0.138850 
-2.152060 17.797780 -0.878390 -59.496022 -86.216672 56.450505 -14.762641 13.535211 2.813185 4.113384 -0.265380 -6.760679 -6.669974 5.626407 9.919134 -0.510770 4.402127 3.334077 0.229990 0.287880 -0.070490 18.663714 -10.979697 2.592873 -1.772137 1.935899 -15.078299 5.763387 -5.852469 23.891105 0.048936 -4.480322 2.864535 0.459390 0.886210 0.077150 -3.812031 -0.383517 -6.607387 11.056267 -1.468860 3.503993 -5.459945 -1.496204 15.844562 1.388310 -1.639083 -8.822682 -3.216129 3.517696 26.822296 -2.238720 1.420900 2.318360 -1.361873 -12.975164 3.903139 -10.943488 -29.638319 1.586929 108.795323 -25.097572 -37.989006 -4.221430 3.044829 -0.230240 0.638780 -0.523410 0.322740 -0.969603 14.290320 3.914123 12.959526 31.742804 1.321717 -107.275247 24.691886 -40.707913 1.842917 -2.161485 -0.370010 0.441040 0.045120 0.139290 
-2.163960 17.783930 -0.874200 -53.985452 -86.245181 51.196157 -14.778495 13.445279 2.801510 3.967210 -0.240047 -6.680157 -6.878472 5.647918 9.761261 -0.523826 4.415558 3.337346 0.231240 0.294560 -0.068460 18.652872 -11.017561 2.608859 -2.088784 2.367182 -16.632317 5.918674 -6.206536 26.105782 0.038771 -4.697269 2.777624 0.476840 0.906990 0.074110 -3.813522 -0.446018 -6.595186 10.615820 -1.592181 3.172534 -5.322456 -1.693428 15.582878 1.363110 -1.568292 -8.635759 -3.035608 3.666728 26.414714 -2.450930 1.625790 2.598740 -1.001521 -12.454907 3.791619 -11.644639 -29.988805 1.991356 108.980083 -24.740581 -37.685585 -4.251646 3.055083 -0.254960 0.665000 -0.546340 0.320960 -1.236609 13.712245 3.589080 13.737496 32.654320 2.173134 -107.446121 24.266826 -40.432802 1.828162 -2.187174 -0.378750 0.450360 0.048310 0.137800 
